<svg xmlns="http://www.w3.org/2000/svg" viewBox="0 0 64 64">
  <defs>
    <linearGradient id="flame" x1="0.2" y1="1" x2="0.55" y2="0">
      <stop offset="0" stop-color="#FF4D00"/>
      <stop offset="0.5" stop-color="#FF6B35"/>
      <stop offset="1" stop-color="#FFA35C"/>
    </linearGradient>
  </defs>
  <rect width="64" height="64" rx="16" fill="#111119"/>
  <!-- 불씨에서 봉화까지 — 혀가 둘인 불꽃 -->
  <path d="M31 6c7 11 14 19 14 30a14 14 0 0 1-28 0c0-9 4-14 7-21 1 7 4 6 7-9z" fill="url(#flame)"/>
  <path d="M30.5 29c3 5 6 7 6 11.5a6 6 0 0 1-12 0c0-4 3-6.5 6-11.5z" fill="#FFE3C2"/>
  <!-- 궤도 점 -->
  <circle cx="51" cy="14" r="4" fill="none" stroke="#FF6B35" stroke-width="2.2"/>
  <circle cx="51" cy="14" r="1.5" fill="#FFA35C"/>
</svg>
